<?xml version="1.0" standalone="no"?>
<!DOCTYPE svg PUBLIC "-//W3C//DTD SVG 20010904//EN"
 "http://www.w3.org/TR/2001/REC-SVG-20010904/DTD/svg10.dtd">
<svg version="1.0" xmlns="http://www.w3.org/2000/svg"
 width="550.000000pt" height="550.000000pt" viewBox="0 0 550.000000 550.000000"
 preserveAspectRatio="xMidYMid meet">
<metadata>
Created by potrace 1.11, written by Peter Selinger 2001-2013
</metadata>
<g transform="translate(0.000000,550.000000) scale(0.100000,-0.100000)"
fill="#000000" stroke="none">
<path d="M2006 5341 c-7 -10 -119 -29 -216 -35 -25 -2 -52 -6 -60 -9 -15 -5
-78 -14 -157 -23 -61 -6 -121 -13 -175 -20 -50 -7 -122 14 -167 48 -34 26 -69
23 -80 -6 -5 -12 -29 -38 -53 -57 -24 -18 -53 -42 -65 -54 -37 -34 -56 -50
-103 -86 -25 -19 -48 -38 -52 -44 -11 -14 -10 -119 1 -131 5 -5 12 -52 16
-104 l7 -95 -64 -47 c-34 -26 -67 -51 -73 -56 -5 -4 -25 -17 -43 -27 -17 -11
-32 -22 -32 -26 0 -4 -8 -9 -17 -13 -20 -6 -51 -25 -70 -43 -15 -13 -10 -99 7
-138 5 -11 14 -63 19 -115 14 -125 18 -156 36 -275 8 -55 17 -120 19 -145 3
-25 10 -72 15 -105 12 -69 20 -132 25 -190 1 -22 8 -53 15 -70 13 -31 6 -100
-11 -122 -5 -7 -7 -21 -3 -32 3 -10 2 -22 -3 -25 -6 -3 -13 -31 -17 -61 -3
-30 -11 -55 -16 -55 -6 0 -10 -12 -8 -27 1 -16 -1 -35 -4 -43 -5 -13 -21 -86
-31 -145 -2 -11 -4 -20 -6 -20 -3 0 -30 -133 -33 -162 -1 -12 -5 -25 -9 -29
-10 -9 -11 -138 -1 -147 3 -4 8 -19 9 -34 4 -38 31 -197 34 -203 2 -3 5 -16 6
-30 2 -14 10 -65 19 -115 9 -49 17 -101 18 -115 2 -14 6 -32 9 -40 4 -8 12
-53 18 -100 15 -112 15 -114 22 -125 3 -6 9 -41 13 -79 8 -79 22 -116 43 -116
8 0 30 -11 48 -25 18 -14 37 -25 43 -25 5 0 14 -6 18 -12 10 -16 160 -138 169
-138 4 0 44 -31 89 -70 45 -38 87 -70 93 -70 6 0 12 -4 14 -9 3 -10 95 -81
104 -81 3 0 15 -11 26 -25 11 -14 24 -25 30 -25 6 0 46 -30 90 -68 44 -37 84
-67 89 -67 6 0 13 -4 17 -10 10 -15 99 -85 107 -85 4 0 19 -12 34 -27 15 -16
40 -37 56 -48 16 -11 54 -41 86 -68 31 -26 60 -47 64 -47 4 0 31 -20 59 -45
29 -25 56 -45 60 -45 4 0 19 -13 33 -30 13 -16 29 -30 35 -30 6 0 38 -23 72
-51 95 -78 96 -79 102 -79 2 0 33 -23 67 -50 90 -74 97 -79 177 -140 40 -30
86 -70 103 -87 37 -40 68 -42 111 -7 26 21 127 98 221 168 11 8 46 35 77 60
32 25 60 46 64 46 3 0 39 27 79 60 40 33 76 60 80 60 6 0 114 85 146 115 9 8
19 15 24 15 5 0 15 7 24 15 32 30 79 65 88 65 4 0 14 9 21 20 7 11 17 20 23
20 6 0 33 18 59 40 26 22 52 40 56 40 5 0 15 9 22 20 7 11 17 20 23 20 9 0 94
62 142 105 9 8 20 15 23 15 4 0 55 39 137 106 9 8 21 14 27 14 5 0 15 8 22 18
7 9 36 33 63 52 28 19 52 38 53 42 2 4 8 8 14 8 5 0 35 20 66 45 61 48 65 51
157 120 33 25 70 53 81 63 12 9 35 26 50 37 56 38 93 84 92 113 0 34 21 161
32 187 5 11 14 63 20 115 7 52 14 102 18 110 3 8 7 24 8 35 18 118 26 163 34
180 9 19 28 130 52 295 8 58 7 82 -3 105 -11 27 -37 138 -40 175 -1 8 -6 20
-10 26 -5 6 -12 40 -15 75 -4 35 -11 69 -16 75 -4 6 -6 19 -2 28 3 9 2 22 -4
29 -6 7 -14 37 -18 67 -4 30 -11 60 -16 67 -5 7 -7 17 -3 24 4 6 1 22 -6 36
-10 19 -10 26 -1 32 7 4 12 21 12 37 0 16 6 70 15 119 9 50 17 104 18 120 1
17 5 35 8 40 4 6 10 42 14 80 4 39 10 75 13 80 4 6 8 24 9 40 1 17 4 41 7 55
2 14 7 52 11 85 4 33 10 69 15 80 5 11 16 70 25 130 9 61 18 127 21 147 5 33
2 41 -35 79 -23 24 -41 40 -41 36 0 -4 -14 8 -31 28 -17 19 -60 56 -96 82
l-65 48 7 172 7 172 -63 72 c-110 122 -255 269 -266 269 -6 0 -13 7 -17 15 -9
25 -39 16 -81 -25 -37 -37 -73 -50 -110 -40 -20 6 -250 31 -274 31 -12 -1 -28
2 -35 7 -6 4 -24 8 -41 8 -69 3 -166 18 -171 25 -13 22 -144 1 -144 -23 0 -5
-4 -8 -9 -8 -12 0 -131 -80 -131 -88 0 -4 -18 -16 -40 -26 -22 -11 -40 -23
-40 -28 0 -4 -5 -8 -11 -8 -6 0 -28 -13 -49 -30 -21 -16 -42 -30 -48 -30 -6 0
-12 -6 -15 -12 -3 -10 -88 -13 -378 -14 -388 -1 -417 1 -432 41 -4 8 -12 15
-18 15 -6 0 -46 36 -88 80 -43 44 -82 80 -87 80 -6 0 -23 14 -39 30 -28 29
-58 39 -69 21z m909 -696 c17 -11 32 -22 35 -25 7 -7 42 -29 60 -37 8 -4 20
-12 27 -17 31 -27 42 -36 47 -36 2 0 28 -16 56 -35 44 -30 61 -35 104 -34 28
0 116 -5 196 -11 80 -6 170 -11 202 -10 31 0 59 -3 62 -8 3 -5 38 -10 78 -11
103 -2 315 -19 337 -26 10 -3 26 -24 36 -48 10 -23 32 -71 49 -107 16 -36 29
-66 28 -68 -2 -1 16 -37 38 -79 22 -42 40 -81 40 -87 0 -5 10 -30 23 -55 20
-43 22 -62 25 -251 1 -113 -1 -210 -5 -215 -8 -10 -33 -23 -283 -141 -69 -33
-164 -79 -213 -102 -48 -23 -102 -42 -120 -42 -29 0 -38 -7 -66 -50 -54 -83
-63 -86 -232 -82 l-146 4 -39 34 c-22 18 -44 34 -50 34 -16 0 -64 54 -64 73 0
9 -4 17 -9 17 -5 0 -11 23 -15 50 -4 28 -10 50 -15 50 -5 0 -14 28 -21 62 -6
33 -19 72 -27 85 l-15 23 -265 0 c-285 0 -318 -5 -327 -53 -3 -12 -7 -33 -10
-47 -3 -14 -13 -61 -22 -105 -9 -44 -18 -87 -22 -95 -3 -8 -5 -18 -4 -21 1 -7
-16 -21 -97 -74 l-53 -35 -177 0 -177 0 -64 65 c-35 36 -69 65 -74 65 -5 0
-42 15 -80 34 -39 19 -109 52 -156 74 -47 22 -134 64 -195 92 -60 29 -127 59
-148 66 -66 23 -67 26 -68 193 0 113 3 158 15 183 8 18 31 69 52 113 20 44 37
85 38 90 1 6 11 31 23 58 45 93 72 154 88 197 1 3 12 28 25 56 l23 52 216 7
c119 4 221 11 226 15 6 4 109 11 230 15 167 5 226 11 243 22 13 8 29 12 35 10
7 -2 19 1 27 8 21 18 101 65 123 72 9 3 17 9 17 14 0 5 6 9 14 9 7 0 32 17 54
39 21 21 45 40 52 43 7 2 74 3 149 3 117 0 140 -3 166 -20z"/>
</g>
</svg>
